# xmcd CD database file
# Copyright (C) 1995-1998 Ti Kan
#
# Track frame offsets:
#	150
#	10500
#	23528
#	36805
#	47376
#	57429
#	67141
#	79525
#	92924
#	108312
#	119549
#	132853
#	150393
#	162174
#	174957
#	184685
#	194606
#	208234
#	218958
#	229329
#
# Disc length: 3188 seconds
#
# Revision: 1
# Processed by: cddbd v1.4b41PL1 Copyright (c) Steve Scherf et al.
# Submitted via: CDex 1.30
#
DISCID=0a0c7214
DTITLE=Mina - Gold Collection CD 1-2
DYEAR=2000
DGENRE=Blues
TTITLE0=When
TTITLE1=Be Bop A Lula
TTITLE2=You Are My Destiny
TTITLE3=My True Love
TTITLE4=Nessuno
TTITLE5=Tua
TTITLE6=Io Sono Il Vento
TTITLE7=Tintarella Di Luna
TTITLE8=Una Zebra A Pois
TTITLE9=Personalita' (Personality)
TTITLE10=Il Cielo In Una Stanza
TTITLE11=Le Mille Bolle Blu
TTITLE12=Come Sinfonia
TTITLE13=Eclisse Twist
TTITLE14=Renato
TTITLE15=Stessa Spiaggia Stesso Mare
TTITLE16=Si' Lo So (Heisser Sand)
TTITLE17=A Volte (Pretend That I'm Her)
TTITLE18=Non Piangero' (Just Let Me Cry)
TTITLE19=Passione
EXTD=\nYEAR: 2000  ID3G:   0
EXTT0=
EXTT1=
EXTT2=
EXTT3=
EXTT4=
EXTT5=
EXTT6=
EXTT7=
EXTT8=
EXTT9=
EXTT10=
EXTT11=
EXTT12=
EXTT13=
EXTT14=
EXTT15=
EXTT16=
EXTT17=
EXTT18=
EXTT19=
PLAYORDER=
